<svg width="18" height="20" viewBox="0 0 18 20" fill="none" xmlns="http://www.w3.org/2000/svg">
<path d="M17.9932 11.7686C18.0016 11.5304 17.7887 11.3473 17.6361 11.1682C17.3682 10.085 16.8371 8.8441 16.0663 7.61271C14.8301 5.63978 11.5588 2.45883 10.3163 1.96818C10.2537 1.9436 10.1978 1.92973 10.1463 1.91824C10.0222 1.51676 9.95646 1.24131 9.47333 0.91909C8.14404 0.0328963 6.65978 -0.216791 5.67728 0.188654C4.69399 0.5941 4.14784 2.83891 5.20565 3.607C6.2147 4.34298 8.21102 2.85873 8.8499 3.80873C9.4876 4.75834 10.1919 7.92026 11.3618 9.94114C11.0662 9.90072 10.7618 9.87932 10.4475 9.87932C9.09761 9.87932 7.88444 10.2749 7.02718 10.907C6.29397 9.7628 5.01382 9.00224 3.55374 9.00224C2.03976 9.00224 0.723553 9.82026 0.0065918 11.0354V20H1.94029L2.35326 19.2672C3.68255 18.7571 5.2544 17.4413 6.34668 16.0383C10.7119 17.7512 17.8953 14.5806 17.9932 11.7686Z" fill="#4294FF"/>
</svg>
