<svg width="14" height="20" viewBox="0 0 14 20" fill="none" xmlns="http://www.w3.org/2000/svg">
<path d="M3.76515 19.9997C1.54192 12.6739 6.23955 9.999 6.23955 9.999C5.91087 13.9082 8.13235 16.9537 8.13235 16.9537C8.94938 16.7071 10.5088 15.555 10.5088 15.555C10.5088 16.9537 9.68599 19.998 9.68599 19.998C9.68599 19.998 12.5666 17.7707 13.4733 14.0713C14.379 10.372 11.7484 6.65803 11.7484 6.65803C11.9069 9.27637 11.0211 11.8516 9.28563 13.819C9.37246 13.7188 9.44531 13.6074 9.50125 13.4868C9.81303 12.8633 10.3136 11.2426 10.0205 7.48963C9.6079 2.22148 4.83451 0 4.83451 0C5.24594 3.20984 4.01224 3.94937 1.12233 10.0421C-1.76758 16.1337 3.76515 19.9997 3.76515 19.9997Z" fill="#707579"/>
</svg>
