<svg width="18" height="18" viewBox="0 0 18 18" fill="none" xmlns="http://www.w3.org/2000/svg">
<path d="M12.4914 0.666748H5.50808C2.47475 0.666748 0.666412 2.47508 0.666412 5.50841V12.4834C0.666412 15.5251 2.47475 17.3334 5.50808 17.3334H12.4831C15.5164 17.3334 17.3247 15.5251 17.3247 12.4917V5.50841C17.3331 2.47508 15.5247 0.666748 12.4914 0.666748ZM13.1664 13.5584C11.7414 13.5584 10.4081 12.9417 9.34141 11.8001C8.13308 12.8917 6.55808 13.5584 4.83308 13.5584C4.49141 13.5584 4.20808 13.2751 4.20808 12.9334C4.20808 12.5917 4.49141 12.3084 4.83308 12.3084C7.72475 12.3084 10.1164 10.0167 10.4247 7.08341H8.99975H4.84141C4.49975 7.08341 4.21641 6.80008 4.21641 6.45841C4.21641 6.11675 4.49975 5.84175 4.84141 5.84175H8.37475V5.06675C8.37475 4.72508 8.65808 4.44175 8.99975 4.44175C9.34141 4.44175 9.62475 4.72508 9.62475 5.06675V5.84175H11.0331C11.0497 5.84175 11.0664 5.83341 11.0831 5.83341C11.0997 5.83341 11.1164 5.84175 11.1331 5.84175H13.1581C13.4997 5.84175 13.7831 6.12508 13.7831 6.46675C13.7831 6.80841 13.4997 7.09175 13.1581 7.09175H11.6747C11.5497 8.51675 11.0164 9.82508 10.1997 10.8917C11.0331 11.8167 12.0747 12.3167 13.1664 12.3167C13.5081 12.3167 13.7914 12.6001 13.7914 12.9417C13.7914 13.2834 13.5081 13.5584 13.1664 13.5584Z" fill="white"/>
</svg>
