<svg width="19" height="18" viewBox="0 0 19 18" fill="none" xmlns="http://www.w3.org/2000/svg">
<path d="M16.6667 10.4583C16.6667 10.1131 16.3868 9.83329 16.0417 9.83329H13.5417C13.1965 9.83329 12.9167 10.1131 12.9167 10.4583V16.0833H11.6667V2.54163C11.6667 1.9347 11.6653 1.54238 11.6265 1.25332C11.59 0.982226 11.5312 0.897259 11.4836 0.849684C11.436 0.802109 11.3511 0.743268 11.08 0.706818C10.7909 0.667951 10.3986 0.666626 9.79166 0.666626C9.18474 0.666626 8.79241 0.667951 8.50333 0.706818C8.23226 0.743268 8.14729 0.802109 8.09972 0.849684C8.05215 0.897259 7.99329 0.982226 7.95685 1.25332C7.91799 1.54238 7.91666 1.9347 7.91666 2.54163V16.0833H6.66666V6.29163C6.66666 5.94645 6.38684 5.66663 6.04166 5.66663H3.54166C3.19649 5.66663 2.91666 5.94645 2.91666 6.29163V16.0833H1.66666H1.45833C1.11315 16.0833 0.833328 16.3631 0.833328 16.7083C0.833328 17.0535 1.11315 17.3333 1.45833 17.3333H18.125C18.4702 17.3333 18.75 17.0535 18.75 16.7083C18.75 16.3631 18.4702 16.0833 18.125 16.0833H17.9167H16.6667V10.4583Z" fill="white"/>
</svg>
